<svg width="102" height="22" viewBox="0 0 102 22" fill="none" xmlns="http://www.w3.org/2000/svg">
<path fill-rule="evenodd" clip-rule="evenodd" d="M102 5.946H98.778V10.226H91.8V5.946H88.579V10.226H82.942C82.4448 10.2263 81.9678 10.0293 81.6155 9.67842C81.2633 9.3275 81.0646 8.85121 81.063 8.354V5.946H77.842V8.354C77.8407 8.85138 77.6421 9.32793 77.2898 9.67907C76.9376 10.0302 76.4604 10.2273 75.963 10.227C75.4656 10.2273 74.9885 10.0302 74.6362 9.67907C74.2839 9.32793 74.0853 8.85138 74.084 8.354V5.946H70.863V8.354C70.8617 8.85138 70.6631 9.32793 70.3108 9.67907C69.9586 10.0302 69.4814 10.2273 68.984 10.227H67.105V5.946H63.885V10.226H46.705V13.438H50.463V13.973C50.463 16.629 48.296 18.789 45.632 18.789C42.968 18.789 40.8 16.629 40.8 13.973V10.227H37.58V13.973C37.58 18.399 41.193 22 45.633 22C50.073 22 53.685 18.4 53.685 13.973V13.438H68.985C70.2814 13.4388 71.5293 12.9449 72.474 12.057C73.4191 12.9447 74.6674 13.4383 75.964 13.437C77.2603 13.4381 78.5082 12.9445 79.453 12.057C80.3978 12.9446 81.6457 13.4382 82.942 13.437H102V5.947V5.946Z" fill="black"/>
<path fill-rule="evenodd" clip-rule="evenodd" d="M84.702 19.297H88.556V22H91.86V16.054H84.702V19.297ZM102 0H95.439V2.973H102V0Z" fill="black"/>
<path fill-rule="evenodd" clip-rule="evenodd" d="M26.842 11.297H10.737V5.946H26.842V11.297ZM26.842 22H0V16.649H26.842V22Z" fill="#FF5B35"/>
</svg>
