<svg class="h-5 w-5" viewBox="0 0 512 384" fill="none" xmlns="http://www.w3.org/2000/svg">
<path d="M439.656 112.186L439.781 112.5H440.12H499.99C507.475 112.5 512.966 119.534 511.155 126.789L505.155 150.789L505.155 150.789C503.88 155.906 499.281 159.5 494 159.5H473.93H472.598L473.601 160.376C486.921 172.019 495.5 188.935 495.5 208V256C495.5 271.999 489.391 286.434 479.624 297.601L479.5 297.742V297.93V352C479.5 369.394 465.394 383.5 448 383.5H416C398.606 383.5 384.5 369.394 384.5 352V320V319.5H384H128H127.5V320V352C127.5 369.394 113.394 383.5 96 383.5H64C46.6061 383.5 32.5 369.394 32.5 352V297.93V297.742L32.3765 297.601C22.6091 286.424 16.5 271.989 16.5 256V208C16.5 188.935 25.0793 172.019 38.4089 160.377L39.4125 159.5H38.08H18.01C12.7294 159.5 8.12963 155.906 6.85518 150.789L6.85507 150.789L0.855071 126.789L0.854958 126.788C-0.965701 119.534 4.52504 112.5 12.01 112.5H71.87H72.2085L72.3342 112.186L88.9742 70.5857C106.008 28.0056 146.644 0.5 192.5 0.5H319.5C365.366 0.5 405.992 28.0055 423.016 70.5856L423.48 70.4L423.016 70.5857L439.656 112.186ZM147.466 93.9843L147.93 94.17L147.466 93.9843L127.536 143.814L127.262 144.5H128H384H384.739L384.464 143.814L364.534 93.9843C357.168 75.5744 339.334 63.5 319.5 63.5H192.5C172.666 63.5 154.832 75.5744 147.466 93.9843ZM63.5 223.9C63.5 233.584 66.7404 241.693 72.447 247.382C78.1535 253.07 86.2868 256.3 96 256.3C98.3071 256.3 100.762 256.347 103.296 256.395C111.244 256.546 119.961 256.712 127.282 255.496C132.116 254.693 136.414 253.278 139.512 250.808C142.635 248.317 144.5 244.782 144.5 239.85C144.5 234.948 142.659 229.479 139.637 224.055C136.611 218.625 132.381 213.206 127.553 208.393C122.725 203.581 117.289 199.364 111.842 196.348C106.402 193.334 100.916 191.5 96 191.5C86.2868 191.5 78.1535 194.73 72.447 200.418C66.7404 206.107 63.5 214.216 63.5 223.9ZM367.5 239.85C367.5 244.782 369.365 248.317 372.488 250.808C375.586 253.278 379.884 254.693 384.718 255.496C392.039 256.712 400.756 256.546 408.704 256.395C411.238 256.347 413.693 256.3 416 256.3C425.713 256.3 433.847 253.07 439.553 247.382C445.26 241.693 448.5 233.584 448.5 223.9C448.5 214.216 445.26 206.107 439.553 200.418C433.847 194.73 425.713 191.5 416 191.5C411.084 191.5 405.598 193.334 400.158 196.348C394.711 199.364 389.275 203.581 384.447 208.393C379.619 213.206 375.389 218.625 372.363 224.055C369.341 229.479 367.5 234.948 367.5 239.85Z" fill="#FBF7F7" stroke="#131212"/>
</svg>
